<mxfile modified="2024-08-06T21:39:40.114Z" host="Electron" agent="Mozilla/5.0 (Windows NT 10.0; Win64; x64) AppleWebKit/537.36 (KHTML, like Gecko) draw.io/24.4.8 Chrome/124.0.6367.207 Electron/30.0.6 Safari/537.36" etag="SnT73njWDD4D7NgLHAo0" version="24.4.8" type="device" pages="3">
  <diagram id="l8hXMBHkgcEJcSW0mbfh" name="Mapa de actividades">
    <mxGraphModel dx="1434" dy="964" grid="1" gridSize="10" guides="1" tooltips="1" connect="1" arrows="1" fold="1" page="1" pageScale="1" pageWidth="1169" pageHeight="827" math="0" shadow="0">
      <root>
        <mxCell id="0" />
        <mxCell id="1" parent="0" />
        <mxCell id="Z_KggfYLNCUlmv5fKUu6-8" style="edgeStyle=orthogonalEdgeStyle;rounded=0;orthogonalLoop=1;jettySize=auto;html=1;exitX=1;exitY=0.5;exitDx=0;exitDy=0;entryX=0;entryY=0.5;entryDx=0;entryDy=0;" parent="1" source="Z_KggfYLNCUlmv5fKUu6-1" target="Z_KggfYLNCUlmv5fKUu6-2" edge="1">
          <mxGeometry relative="1" as="geometry" />
        </mxCell>
        <mxCell id="Z_KggfYLNCUlmv5fKUu6-1" value="Login" style="rounded=1;whiteSpace=wrap;html=1;" parent="1" vertex="1">
          <mxGeometry x="40" y="320" width="120" height="240" as="geometry" />
        </mxCell>
        <mxCell id="HEeU5SCbe73qUZLyJrQu-3" value="" style="edgeStyle=orthogonalEdgeStyle;rounded=0;orthogonalLoop=1;jettySize=auto;html=1;" edge="1" parent="1" source="Z_KggfYLNCUlmv5fKUu6-2" target="HEeU5SCbe73qUZLyJrQu-1">
          <mxGeometry relative="1" as="geometry" />
        </mxCell>
        <mxCell id="Z_KggfYLNCUlmv5fKUu6-2" value="Main/Navagador" style="rounded=1;whiteSpace=wrap;html=1;" parent="1" vertex="1">
          <mxGeometry x="240" y="320" width="120" height="240" as="geometry" />
        </mxCell>
        <mxCell id="Z_KggfYLNCUlmv5fKUu6-10" style="edgeStyle=orthogonalEdgeStyle;rounded=0;orthogonalLoop=1;jettySize=auto;html=1;exitX=0.5;exitY=0;exitDx=0;exitDy=0;entryX=0.5;entryY=1;entryDx=0;entryDy=0;" parent="1" source="Z_KggfYLNCUlmv5fKUu6-3" target="Z_KggfYLNCUlmv5fKUu6-7" edge="1">
          <mxGeometry relative="1" as="geometry" />
        </mxCell>
        <mxCell id="Z_KggfYLNCUlmv5fKUu6-12" style="edgeStyle=orthogonalEdgeStyle;rounded=0;orthogonalLoop=1;jettySize=auto;html=1;exitX=1;exitY=0.5;exitDx=0;exitDy=0;entryX=0;entryY=0.5;entryDx=0;entryDy=0;" parent="1" source="Z_KggfYLNCUlmv5fKUu6-3" target="Z_KggfYLNCUlmv5fKUu6-4" edge="1">
          <mxGeometry relative="1" as="geometry" />
        </mxCell>
        <mxCell id="Z_KggfYLNCUlmv5fKUu6-3" value="Lista de&amp;nbsp;&lt;div&gt;operaciones&lt;/div&gt;" style="rounded=1;whiteSpace=wrap;html=1;" parent="1" vertex="1">
          <mxGeometry x="640" y="320" width="120" height="240" as="geometry" />
        </mxCell>
        <mxCell id="Z_KggfYLNCUlmv5fKUu6-13" style="edgeStyle=orthogonalEdgeStyle;rounded=0;orthogonalLoop=1;jettySize=auto;html=1;exitX=0.5;exitY=0;exitDx=0;exitDy=0;entryX=0.5;entryY=1;entryDx=0;entryDy=0;" parent="1" source="Z_KggfYLNCUlmv5fKUu6-4" target="Z_KggfYLNCUlmv5fKUu6-6" edge="1">
          <mxGeometry relative="1" as="geometry" />
        </mxCell>
        <mxCell id="xrJz91aIi8kxBR5-LE6x-9" value="" style="edgeStyle=orthogonalEdgeStyle;rounded=0;orthogonalLoop=1;jettySize=auto;html=1;" parent="1" source="Z_KggfYLNCUlmv5fKUu6-4" target="xrJz91aIi8kxBR5-LE6x-5" edge="1">
          <mxGeometry relative="1" as="geometry" />
        </mxCell>
        <mxCell id="Z_KggfYLNCUlmv5fKUu6-4" value="Operacion" style="rounded=1;whiteSpace=wrap;html=1;" parent="1" vertex="1">
          <mxGeometry x="840" y="320" width="120" height="240" as="geometry" />
        </mxCell>
        <mxCell id="Z_KggfYLNCUlmv5fKUu6-6" value="Mapa" style="rounded=1;whiteSpace=wrap;html=1;" parent="1" vertex="1">
          <mxGeometry x="840" y="40" width="120" height="240" as="geometry" />
        </mxCell>
        <mxCell id="Z_KggfYLNCUlmv5fKUu6-7" value="Mapa" style="rounded=1;whiteSpace=wrap;html=1;" parent="1" vertex="1">
          <mxGeometry x="640" y="40" width="120" height="240" as="geometry" />
        </mxCell>
        <mxCell id="xrJz91aIi8kxBR5-LE6x-1" value="Activity" style="text;html=1;align=center;verticalAlign=middle;whiteSpace=wrap;rounded=0;" parent="1" vertex="1">
          <mxGeometry x="90" y="530" width="60" height="30" as="geometry" />
        </mxCell>
        <mxCell id="xrJz91aIi8kxBR5-LE6x-2" value="Activity" style="text;html=1;align=center;verticalAlign=middle;whiteSpace=wrap;rounded=0;" parent="1" vertex="1">
          <mxGeometry x="270" y="530" width="60" height="30" as="geometry" />
        </mxCell>
        <mxCell id="xrJz91aIi8kxBR5-LE6x-3" value="Composable" style="text;html=1;align=center;verticalAlign=middle;whiteSpace=wrap;rounded=0;" parent="1" vertex="1">
          <mxGeometry x="670" y="530" width="60" height="30" as="geometry" />
        </mxCell>
        <mxCell id="xrJz91aIi8kxBR5-LE6x-4" value="Composable" style="text;html=1;align=center;verticalAlign=middle;whiteSpace=wrap;rounded=0;" parent="1" vertex="1">
          <mxGeometry x="870" y="530" width="60" height="30" as="geometry" />
        </mxCell>
        <mxCell id="xrJz91aIi8kxBR5-LE6x-5" value="Camara" style="rounded=1;whiteSpace=wrap;html=1;" parent="1" vertex="1">
          <mxGeometry x="1040" y="320" width="120" height="240" as="geometry" />
        </mxCell>
        <mxCell id="xrJz91aIi8kxBR5-LE6x-6" value="Composable" style="text;html=1;align=center;verticalAlign=middle;whiteSpace=wrap;rounded=0;" parent="1" vertex="1">
          <mxGeometry x="1070" y="530" width="60" height="30" as="geometry" />
        </mxCell>
        <mxCell id="xrJz91aIi8kxBR5-LE6x-7" value="Composable" style="text;html=1;align=center;verticalAlign=middle;whiteSpace=wrap;rounded=0;" parent="1" vertex="1">
          <mxGeometry x="870" y="250" width="60" height="30" as="geometry" />
        </mxCell>
        <mxCell id="xrJz91aIi8kxBR5-LE6x-8" value="Composable" style="text;html=1;align=center;verticalAlign=middle;whiteSpace=wrap;rounded=0;" parent="1" vertex="1">
          <mxGeometry x="670" y="250" width="60" height="30" as="geometry" />
        </mxCell>
        <mxCell id="HEeU5SCbe73qUZLyJrQu-2" value="" style="edgeStyle=orthogonalEdgeStyle;rounded=0;orthogonalLoop=1;jettySize=auto;html=1;" edge="1" parent="1" source="HEeU5SCbe73qUZLyJrQu-1" target="Z_KggfYLNCUlmv5fKUu6-3">
          <mxGeometry relative="1" as="geometry" />
        </mxCell>
        <mxCell id="HEeU5SCbe73qUZLyJrQu-1" value="Lista de Grupos" style="rounded=1;whiteSpace=wrap;html=1;" vertex="1" parent="1">
          <mxGeometry x="440" y="320" width="120" height="240" as="geometry" />
        </mxCell>
        <mxCell id="HEeU5SCbe73qUZLyJrQu-4" value="Composable" style="text;html=1;align=center;verticalAlign=middle;whiteSpace=wrap;rounded=0;" vertex="1" parent="1">
          <mxGeometry x="470" y="530" width="60" height="30" as="geometry" />
        </mxCell>
      </root>
    </mxGraphModel>
  </diagram>
  <diagram id="vIzIWi_lkWkFmT5q0cfH" name="DB SqlLite">
    <mxGraphModel dx="1434" dy="844" grid="1" gridSize="10" guides="1" tooltips="1" connect="1" arrows="1" fold="1" page="1" pageScale="1" pageWidth="827" pageHeight="1169" math="0" shadow="0">
      <root>
        <mxCell id="0" />
        <mxCell id="1" parent="0" />
        <mxCell id="biZhyibUWPvnRRWP60Rq-2" value="Grupo" style="swimlane;fontStyle=0;childLayout=stackLayout;horizontal=1;startSize=30;horizontalStack=0;resizeParent=1;resizeParentMax=0;resizeLast=0;collapsible=1;marginBottom=0;whiteSpace=wrap;html=1;" vertex="1" parent="1">
          <mxGeometry x="120" y="120" width="140" height="120" as="geometry" />
        </mxCell>
        <mxCell id="biZhyibUWPvnRRWP60Rq-3" value="Item 1" style="text;strokeColor=none;fillColor=none;align=left;verticalAlign=middle;spacingLeft=4;spacingRight=4;overflow=hidden;points=[[0,0.5],[1,0.5]];portConstraint=eastwest;rotatable=0;whiteSpace=wrap;html=1;" vertex="1" parent="biZhyibUWPvnRRWP60Rq-2">
          <mxGeometry y="30" width="140" height="30" as="geometry" />
        </mxCell>
        <mxCell id="biZhyibUWPvnRRWP60Rq-4" value="Item 2" style="text;strokeColor=none;fillColor=none;align=left;verticalAlign=middle;spacingLeft=4;spacingRight=4;overflow=hidden;points=[[0,0.5],[1,0.5]];portConstraint=eastwest;rotatable=0;whiteSpace=wrap;html=1;" vertex="1" parent="biZhyibUWPvnRRWP60Rq-2">
          <mxGeometry y="60" width="140" height="30" as="geometry" />
        </mxCell>
        <mxCell id="biZhyibUWPvnRRWP60Rq-5" value="Item 3" style="text;strokeColor=none;fillColor=none;align=left;verticalAlign=middle;spacingLeft=4;spacingRight=4;overflow=hidden;points=[[0,0.5],[1,0.5]];portConstraint=eastwest;rotatable=0;whiteSpace=wrap;html=1;" vertex="1" parent="biZhyibUWPvnRRWP60Rq-2">
          <mxGeometry y="90" width="140" height="30" as="geometry" />
        </mxCell>
        <mxCell id="biZhyibUWPvnRRWP60Rq-7" value="Operaciones" style="swimlane;fontStyle=0;childLayout=stackLayout;horizontal=1;startSize=30;horizontalStack=0;resizeParent=1;resizeParentMax=0;resizeLast=0;collapsible=1;marginBottom=0;whiteSpace=wrap;html=1;" vertex="1" parent="1">
          <mxGeometry x="400" y="120" width="140" height="120" as="geometry" />
        </mxCell>
        <mxCell id="biZhyibUWPvnRRWP60Rq-8" value="Item 1" style="text;strokeColor=none;fillColor=none;align=left;verticalAlign=middle;spacingLeft=4;spacingRight=4;overflow=hidden;points=[[0,0.5],[1,0.5]];portConstraint=eastwest;rotatable=0;whiteSpace=wrap;html=1;" vertex="1" parent="biZhyibUWPvnRRWP60Rq-7">
          <mxGeometry y="30" width="140" height="30" as="geometry" />
        </mxCell>
        <mxCell id="biZhyibUWPvnRRWP60Rq-9" value="Item 2" style="text;strokeColor=none;fillColor=none;align=left;verticalAlign=middle;spacingLeft=4;spacingRight=4;overflow=hidden;points=[[0,0.5],[1,0.5]];portConstraint=eastwest;rotatable=0;whiteSpace=wrap;html=1;" vertex="1" parent="biZhyibUWPvnRRWP60Rq-7">
          <mxGeometry y="60" width="140" height="30" as="geometry" />
        </mxCell>
        <mxCell id="biZhyibUWPvnRRWP60Rq-10" value="Item 3" style="text;strokeColor=none;fillColor=none;align=left;verticalAlign=middle;spacingLeft=4;spacingRight=4;overflow=hidden;points=[[0,0.5],[1,0.5]];portConstraint=eastwest;rotatable=0;whiteSpace=wrap;html=1;" vertex="1" parent="biZhyibUWPvnRRWP60Rq-7">
          <mxGeometry y="90" width="140" height="30" as="geometry" />
        </mxCell>
        <mxCell id="biZhyibUWPvnRRWP60Rq-11" value="Observaciones" style="swimlane;fontStyle=0;childLayout=stackLayout;horizontal=1;startSize=30;horizontalStack=0;resizeParent=1;resizeParentMax=0;resizeLast=0;collapsible=1;marginBottom=0;whiteSpace=wrap;html=1;" vertex="1" parent="1">
          <mxGeometry x="120" y="280" width="140" height="120" as="geometry" />
        </mxCell>
        <mxCell id="biZhyibUWPvnRRWP60Rq-12" value="Item 1" style="text;strokeColor=none;fillColor=none;align=left;verticalAlign=middle;spacingLeft=4;spacingRight=4;overflow=hidden;points=[[0,0.5],[1,0.5]];portConstraint=eastwest;rotatable=0;whiteSpace=wrap;html=1;" vertex="1" parent="biZhyibUWPvnRRWP60Rq-11">
          <mxGeometry y="30" width="140" height="30" as="geometry" />
        </mxCell>
        <mxCell id="biZhyibUWPvnRRWP60Rq-13" value="Item 2" style="text;strokeColor=none;fillColor=none;align=left;verticalAlign=middle;spacingLeft=4;spacingRight=4;overflow=hidden;points=[[0,0.5],[1,0.5]];portConstraint=eastwest;rotatable=0;whiteSpace=wrap;html=1;" vertex="1" parent="biZhyibUWPvnRRWP60Rq-11">
          <mxGeometry y="60" width="140" height="30" as="geometry" />
        </mxCell>
        <mxCell id="biZhyibUWPvnRRWP60Rq-14" value="Item 3" style="text;strokeColor=none;fillColor=none;align=left;verticalAlign=middle;spacingLeft=4;spacingRight=4;overflow=hidden;points=[[0,0.5],[1,0.5]];portConstraint=eastwest;rotatable=0;whiteSpace=wrap;html=1;" vertex="1" parent="biZhyibUWPvnRRWP60Rq-11">
          <mxGeometry y="90" width="140" height="30" as="geometry" />
        </mxCell>
        <mxCell id="biZhyibUWPvnRRWP60Rq-15" value="OperacionesFoto" style="swimlane;fontStyle=0;childLayout=stackLayout;horizontal=1;startSize=30;horizontalStack=0;resizeParent=1;resizeParentMax=0;resizeLast=0;collapsible=1;marginBottom=0;whiteSpace=wrap;html=1;" vertex="1" parent="1">
          <mxGeometry x="630" y="120" width="140" height="120" as="geometry" />
        </mxCell>
        <mxCell id="biZhyibUWPvnRRWP60Rq-16" value="Item 1" style="text;strokeColor=none;fillColor=none;align=left;verticalAlign=middle;spacingLeft=4;spacingRight=4;overflow=hidden;points=[[0,0.5],[1,0.5]];portConstraint=eastwest;rotatable=0;whiteSpace=wrap;html=1;" vertex="1" parent="biZhyibUWPvnRRWP60Rq-15">
          <mxGeometry y="30" width="140" height="30" as="geometry" />
        </mxCell>
        <mxCell id="biZhyibUWPvnRRWP60Rq-17" value="Item 2" style="text;strokeColor=none;fillColor=none;align=left;verticalAlign=middle;spacingLeft=4;spacingRight=4;overflow=hidden;points=[[0,0.5],[1,0.5]];portConstraint=eastwest;rotatable=0;whiteSpace=wrap;html=1;" vertex="1" parent="biZhyibUWPvnRRWP60Rq-15">
          <mxGeometry y="60" width="140" height="30" as="geometry" />
        </mxCell>
        <mxCell id="biZhyibUWPvnRRWP60Rq-18" value="Item 3" style="text;strokeColor=none;fillColor=none;align=left;verticalAlign=middle;spacingLeft=4;spacingRight=4;overflow=hidden;points=[[0,0.5],[1,0.5]];portConstraint=eastwest;rotatable=0;whiteSpace=wrap;html=1;" vertex="1" parent="biZhyibUWPvnRRWP60Rq-15">
          <mxGeometry y="90" width="140" height="30" as="geometry" />
        </mxCell>
        <mxCell id="biZhyibUWPvnRRWP60Rq-19" style="edgeStyle=orthogonalEdgeStyle;rounded=0;orthogonalLoop=1;jettySize=auto;html=1;exitX=1;exitY=0.5;exitDx=0;exitDy=0;entryX=0;entryY=0.5;entryDx=0;entryDy=0;" edge="1" parent="1" source="biZhyibUWPvnRRWP60Rq-4" target="biZhyibUWPvnRRWP60Rq-9">
          <mxGeometry relative="1" as="geometry" />
        </mxCell>
        <mxCell id="biZhyibUWPvnRRWP60Rq-20" style="edgeStyle=orthogonalEdgeStyle;rounded=0;orthogonalLoop=1;jettySize=auto;html=1;exitX=1;exitY=0.5;exitDx=0;exitDy=0;entryX=0;entryY=0.5;entryDx=0;entryDy=0;" edge="1" parent="1" source="biZhyibUWPvnRRWP60Rq-9" target="biZhyibUWPvnRRWP60Rq-17">
          <mxGeometry relative="1" as="geometry" />
        </mxCell>
      </root>
    </mxGraphModel>
  </diagram>
  <diagram id="vVjJXW2eOheUjd-N70Pq" name="Flujo">
    <mxGraphModel dx="1434" dy="844" grid="1" gridSize="10" guides="1" tooltips="1" connect="1" arrows="1" fold="1" page="1" pageScale="1" pageWidth="827" pageHeight="1169" math="0" shadow="0">
      <root>
        <mxCell id="0" />
        <mxCell id="1" parent="0" />
        <mxCell id="A8cDYkrjF-wUxR21KEvQ-7" style="edgeStyle=orthogonalEdgeStyle;rounded=0;orthogonalLoop=1;jettySize=auto;html=1;exitX=0.5;exitY=1;exitDx=0;exitDy=0;entryX=0.5;entryY=0;entryDx=0;entryDy=0;" edge="1" parent="1" source="A8cDYkrjF-wUxR21KEvQ-1" target="A8cDYkrjF-wUxR21KEvQ-3">
          <mxGeometry relative="1" as="geometry" />
        </mxCell>
        <mxCell id="A8cDYkrjF-wUxR21KEvQ-1" value="Inicio" style="ellipse;whiteSpace=wrap;html=1;" vertex="1" parent="1">
          <mxGeometry x="200" y="80" width="80" height="40" as="geometry" />
        </mxCell>
        <mxCell id="A8cDYkrjF-wUxR21KEvQ-2" value="Fin" style="ellipse;whiteSpace=wrap;html=1;" vertex="1" parent="1">
          <mxGeometry x="200" y="520" width="80" height="40" as="geometry" />
        </mxCell>
        <mxCell id="A8cDYkrjF-wUxR21KEvQ-8" style="edgeStyle=orthogonalEdgeStyle;rounded=0;orthogonalLoop=1;jettySize=auto;html=1;exitX=0.5;exitY=1;exitDx=0;exitDy=0;entryX=0.5;entryY=0;entryDx=0;entryDy=0;" edge="1" parent="1" source="A8cDYkrjF-wUxR21KEvQ-3" target="A8cDYkrjF-wUxR21KEvQ-4">
          <mxGeometry relative="1" as="geometry" />
        </mxCell>
        <mxCell id="A8cDYkrjF-wUxR21KEvQ-3" value="Cargar xls a una tabla de inspecciones y se agrupa por periodo" style="rounded=0;whiteSpace=wrap;html=1;" vertex="1" parent="1">
          <mxGeometry x="120" y="150" width="240" height="60" as="geometry" />
        </mxCell>
        <mxCell id="A8cDYkrjF-wUxR21KEvQ-9" style="edgeStyle=orthogonalEdgeStyle;rounded=0;orthogonalLoop=1;jettySize=auto;html=1;exitX=0.5;exitY=1;exitDx=0;exitDy=0;entryX=0.5;entryY=0;entryDx=0;entryDy=0;" edge="1" parent="1" source="A8cDYkrjF-wUxR21KEvQ-4" target="A8cDYkrjF-wUxR21KEvQ-5">
          <mxGeometry relative="1" as="geometry" />
        </mxCell>
        <mxCell id="A8cDYkrjF-wUxR21KEvQ-4" value="De la tabla inspecciones todas las que estan activas deben pasar al mapa&amp;nbsp;" style="rounded=0;whiteSpace=wrap;html=1;" vertex="1" parent="1">
          <mxGeometry x="120" y="240" width="240" height="60" as="geometry" />
        </mxCell>
        <mxCell id="A8cDYkrjF-wUxR21KEvQ-10" style="edgeStyle=orthogonalEdgeStyle;rounded=0;orthogonalLoop=1;jettySize=auto;html=1;exitX=0.5;exitY=1;exitDx=0;exitDy=0;" edge="1" parent="1" source="A8cDYkrjF-wUxR21KEvQ-5" target="A8cDYkrjF-wUxR21KEvQ-6">
          <mxGeometry relative="1" as="geometry" />
        </mxCell>
        <mxCell id="A8cDYkrjF-wUxR21KEvQ-5" value="En el mapa agrupar los suministros y agregar tecnico esto genera un grupo periodo-zona(99)-tecnico" style="rounded=0;whiteSpace=wrap;html=1;" vertex="1" parent="1">
          <mxGeometry x="120" y="330" width="240" height="60" as="geometry" />
        </mxCell>
        <mxCell id="A8cDYkrjF-wUxR21KEvQ-11" style="edgeStyle=orthogonalEdgeStyle;rounded=0;orthogonalLoop=1;jettySize=auto;html=1;exitX=0.5;exitY=1;exitDx=0;exitDy=0;entryX=0.5;entryY=0;entryDx=0;entryDy=0;" edge="1" parent="1" source="A8cDYkrjF-wUxR21KEvQ-6" target="A8cDYkrjF-wUxR21KEvQ-2">
          <mxGeometry relative="1" as="geometry" />
        </mxCell>
        <mxCell id="A8cDYkrjF-wUxR21KEvQ-6" value="Los suministros agrupados se genera operciones de tipo 3" style="rounded=0;whiteSpace=wrap;html=1;" vertex="1" parent="1">
          <mxGeometry x="120" y="420" width="240" height="60" as="geometry" />
        </mxCell>
      </root>
    </mxGraphModel>
  </diagram>
</mxfile>
